<svg xmlns="http://www.w3.org/2000/svg" viewBox="0 0 1200 675" width="1200" height="675">
    <rect width="1200" height="675" fill="#0F172A"/>
    
    <!-- Top Header -->
    <rect x="0" y="0" width="1200" height="65" fill="#1E293B"/>
    <text x="30" y="42" fill="#F8FAFC" font-family="Segoe UI, sans-serif" font-size="22" font-weight="700">EchoChain Lakehouse Analytics</text>
    <text x="400" y="42" fill="#10B981" font-family="Segoe UI, sans-serif" font-size="16" font-weight="600">| Page 6: Financial & Buy-Back Program Insights</text>
    <rect x="1050" y="18" width="120" height="30" rx="6" fill="#10B981"/>
    <text x="1075" y="38" fill="#0F172A" font-family="Segoe UI, sans-serif" font-size="12" font-weight="700">LIVE DATA</text>
    
    <!-- KPI Row -->
    
        <g transform="translate(50, 90)">
            <rect width="200" height="90" rx="10" fill="#1E293B" stroke="#334155" stroke-width="1.5"/>
            <text x="15" y="30" fill="#94A3B8" font-family="Segoe UI, sans-serif" font-size="12" font-weight="600">BUY-BACK MARGIN</text>
            <text x="15" y="68" fill="#10B981" font-family="Segoe UI, sans-serif" font-size="26" font-weight="700">$148.50 / unit</text>
        </g>
        
        <g transform="translate(270, 90)">
            <rect width="200" height="90" rx="10" fill="#1E293B" stroke="#334155" stroke-width="1.5"/>
            <text x="15" y="30" fill="#94A3B8" font-family="Segoe UI, sans-serif" font-size="12" font-weight="600">BUY-BACK ROI</text>
            <text x="15" y="68" fill="#06B6D4" font-family="Segoe UI, sans-serif" font-size="26" font-weight="700">34.2%</text>
        </g>
        
        <g transform="translate(490, 90)">
            <rect width="200" height="90" rx="10" fill="#1E293B" stroke="#334155" stroke-width="1.5"/>
            <text x="15" y="30" fill="#94A3B8" font-family="Segoe UI, sans-serif" font-size="12" font-weight="600">SECONDARY MARKET REVENUE</text>
            <text x="15" y="68" fill="#8B5CF6" font-family="Segoe UI, sans-serif" font-size="26" font-weight="700">$5.3M / yr</text>
        </g>
        
        <g transform="translate(710, 90)">
            <rect width="200" height="90" rx="10" fill="#1E293B" stroke="#334155" stroke-width="1.5"/>
            <text x="15" y="30" fill="#94A3B8" font-family="Segoe UI, sans-serif" font-size="12" font-weight="600">WARRANTY EXPENSE VAR</text>
            <text x="15" y="68" fill="#10B981" font-family="Segoe UI, sans-serif" font-size="26" font-weight="700">-4.2%</text>
        </g>
        
    
    <!-- Main Visual Left -->
    <rect x="50" y="210" width="540" height="200" rx="10" fill="#1E293B" stroke="#334155" stroke-width="1.5"/>
    <text x="70" y="240" fill="#F8FAFC" font-family="Segoe UI, sans-serif" font-size="15" font-weight="600">Buy-Back Profitability Waterfall</text>
    <!-- Chart Mock Lines -->
    <path d="M 80 370 L 150 320 L 220 340 L 290 280 L 360 300 L 430 250 L 550 270" fill="none" stroke="#10B981" stroke-width="3"/>
    <path d="M 80 380 L 150 350 L 220 360 L 290 310 L 360 330 L 430 290 L 550 310" fill="none" stroke="#06B6D4" stroke-width="2" stroke-dasharray="4"/>
    
    <!-- Main Visual Right -->
    <rect x="610" y="210" width="540" height="200" rx="10" fill="#1E293B" stroke="#334155" stroke-width="1.5"/>
    <text x="630" y="240" fill="#F8FAFC" font-family="Segoe UI, sans-serif" font-size="15" font-weight="600">3-Year Revenue Recovery Forecast</text>
    <!-- Bar Mock -->
    <rect x="640" y="270" width="380" height="20" rx="4" fill="#10B981"/>
    <rect x="640" y="305" width="310" height="20" rx="4" fill="#06B6D4"/>
    <rect x="640" y="340" width="240" height="20" rx="4" fill="#8B5CF6"/>
    <rect x="640" y="375" width="180" height="20" rx="4" fill="#F59E0B"/>

    <!-- Bottom Visual -->
    <rect x="50" y="430" width="1100" height="210" rx="10" fill="#1E293B" stroke="#334155" stroke-width="1.5"/>
    <text x="70" y="460" fill="#F8FAFC" font-family="Segoe UI, sans-serif" font-size="15" font-weight="600">Category Trade-in Profitability Matrix</text>
    
    <!-- Tree/Table Mock -->
    <rect x="70" y="480" width="220" height="40" rx="6" fill="#334155"/>
    <text x="85" y="505" fill="#F8FAFC" font-family="Segoe UI, sans-serif" font-size="13">Smartphones (88.4%)</text>
    
    <rect x="320" y="480" width="220" height="40" rx="6" fill="#334155"/>
    <text x="335" y="505" fill="#F8FAFC" font-family="Segoe UI, sans-serif" font-size="13">Laptops (84.1%)</text>

    <rect x="570" y="480" width="220" height="40" rx="6" fill="#334155"/>
    <text x="585" y="505" fill="#F8FAFC" font-family="Segoe UI, sans-serif" font-size="13">Home Appliances (79.2%)</text>
    
    <line x1="290" y1="500" x2="320" y2="500" stroke="#10B981" stroke-width="2"/>
    <line x1="540" y1="500" x2="570" y2="500" stroke="#10B981" stroke-width="2"/>
    
    <rect x="70" y="540" width="1060" height="80" rx="6" fill="#0F172A"/>
    <text x="90" y="570" fill="#10B981" font-family="Segoe UI, sans-serif" font-size="13" font-weight="600">[OK] Medallion Delta Lakehouse Pipeline Status: Synced &amp; Operational</text>
    <text x="90" y="595" fill="#94A3B8" font-family="Segoe UI, sans-serif" font-size="12">Bronze -> Silver -> Fuzzy Match SKU -> Gold Aggregations (Z-Ordered by Category)</text>
</svg>